<?xml version="1.0" encoding="UTF-8"?>
<!DOCTYPE svg PUBLIC "-//W3C//DTD SVG 1.1//EN" "http://www.w3.org/Graphics/SVG/1.1/DTD/svg11.dtd">
<svg xmlns="http://www.w3.org/2000/svg" version="1.1" width="715px" height="424px" style="shape-rendering:geometricPrecision; text-rendering:geometricPrecision; image-rendering:optimizeQuality; fill-rule:evenodd; clip-rule:evenodd" xmlns:xlink="http://www.w3.org/1999/xlink">
<g><path style="opacity:0.412" fill="#c8dffd" d="M 368.5,-0.5 C 370.167,-0.5 371.833,-0.5 373.5,-0.5C 374.167,0.166667 374.833,0.833333 375.5,1.5C 371.247,0.807488 367.581,1.80749 364.5,4.5C 365.111,2.22543 366.445,0.558761 368.5,-0.5 Z"/></g>
<g><path style="opacity:1" fill="#60a5fa" d="M 375.5,1.5 C 377.5,1.5 378.5,2.5 378.5,4.5C 378.427,6.02694 379.094,7.02694 380.5,7.5C 380.427,9.02694 381.094,10.0269 382.5,10.5C 382.241,12.9893 383.241,14.656 385.5,15.5C 385.427,17.0269 386.094,18.0269 387.5,18.5C 388.846,20.5368 390.18,22.5368 391.5,24.5C 392.401,25.2905 393.068,26.2905 393.5,27.5C 393.427,29.0269 394.094,30.0269 395.5,30.5C 395.241,32.9893 396.241,34.656 398.5,35.5C 398.427,37.0269 399.094,38.0269 400.5,38.5C 400.427,40.0269 401.094,41.0269 402.5,41.5C 403.117,41.6107 403.617,41.944 404,42.5C 408.657,39.7547 413.49,37.4213 418.5,35.5C 420.553,35.5979 422.22,34.9313 423.5,33.5C 427.849,30.6589 432.516,28.3255 437.5,26.5C 441.036,26.0588 444.37,25.0588 447.5,23.5C 449.207,23.7284 450.874,24.0617 452.5,24.5C 454.763,30.2239 456.096,36.2239 456.5,42.5C 456.155,53.9161 456.822,65.2495 458.5,76.5C 459.791,76.7373 460.791,76.404 461.5,75.5C 469.567,74.1415 477.234,71.8082 484.5,68.5C 490.129,67.2907 495.795,66.2907 501.5,65.5C 502.492,65.3284 503.158,65.6618 503.5,66.5C 505.004,69.4012 505.67,72.5679 505.5,76C 503.386,92.1726 501.553,108.339 500,124.5C 512.631,129.21 525.131,134.21 537.5,139.5C 538.299,142.43 538.632,145.43 538.5,148.5C 537.094,148.973 536.427,149.973 536.5,151.5C 536.5,152.167 536.167,152.5 535.5,152.5C 533.738,153.262 532.738,154.596 532.5,156.5C 532.5,157.167 532.167,157.5 531.5,157.5C 529.738,158.262 528.738,159.596 528.5,161.5C 528.5,162.167 528.167,162.5 527.5,162.5C 525.738,163.262 524.738,164.596 524.5,166.5C 524.5,167.167 524.167,167.5 523.5,167.5C 522.094,167.973 521.427,168.973 521.5,170.5C 521.5,171.167 521.167,171.5 520.5,171.5C 518.738,172.262 517.738,173.596 517.5,175.5C 517.5,176.167 517.167,176.5 516.5,176.5C 514.738,177.262 513.738,178.596 513.5,180.5C 512.861,181.097 512.528,181.93 512.5,183C 512.684,184.376 513.351,185.209 514.5,185.5C 514.427,187.027 515.094,188.027 516.5,188.5C 516.427,190.027 517.094,191.027 518.5,191.5C 518.427,193.027 519.094,194.027 520.5,194.5C 520.427,196.027 521.094,197.027 522.5,197.5C 522.427,199.027 523.094,200.027 524.5,200.5C 524.427,202.027 525.094,203.027 526.5,203.5C 526.427,205.027 527.094,206.027 528.5,206.5C 528.427,208.027 529.094,209.027 530.5,209.5C 531.338,209.842 531.672,210.508 531.5,211.5C 531.427,213.027 532.094,214.027 533.5,214.5C 533.427,216.027 534.094,217.027 535.5,217.5C 535.427,219.027 536.094,220.027 537.5,220.5C 537.427,222.027 538.094,223.027 539.5,223.5C 540.265,226.096 540.599,228.763 540.5,231.5C 539.833,234.167 538.167,235.833 535.5,236.5C 521.98,237.002 508.647,238.002 495.5,239.5C 494.298,242.487 494.965,245.154 497.5,247.5C 498.434,248.568 498.768,249.901 498.5,251.5C 498.41,254.152 499.076,256.485 500.5,258.5C 500.259,260.898 500.926,262.898 502.5,264.5C 502.5,264.833 502.5,265.167 502.5,265.5C 502.41,268.152 503.076,270.485 504.5,272.5C 505.69,277.523 505.69,282.523 504.5,287.5C 503.942,288.79 502.942,289.623 501.5,290C 496.129,290.676 490.796,290.509 485.5,289.5C 485.389,288.883 485.056,288.383 484.5,288C 478.509,287.501 472.509,287.334 466.5,287.5C 465.5,287.5 464.5,287.5 463.5,287.5C 458.402,286.043 453.069,285.376 447.5,285.5C 448.766,282.245 450.432,279.245 452.5,276.5C 456.156,273.197 458.822,269.197 460.5,264.5C 461.345,263.329 462.011,261.995 462.5,260.5C 465.812,257.229 468.145,253.229 469.5,248.5C 478.299,228.698 481.132,208.031 478,186.5C 476.857,181.547 474.69,177.214 471.5,173.5C 471.573,171.973 470.906,170.973 469.5,170.5C 468.864,168.205 467.531,166.539 465.5,165.5C 464.738,163.738 463.404,162.738 461.5,162.5C 460.656,160.241 458.989,159.241 456.5,159.5C 455.365,157.787 453.698,157.12 451.5,157.5C 449.901,157.768 448.568,157.434 447.5,156.5C 447.082,155.778 446.416,155.278 445.5,155C 438.654,154.179 431.987,154.346 425.5,155.5C 418.904,156.143 412.904,158.143 407.5,161.5C 401.156,162.84 395.489,165.507 390.5,169.5C 388.973,169.427 387.973,170.094 387.5,171.5C 385.973,171.427 384.973,172.094 384.5,173.5C 382.973,173.427 381.973,174.094 381.5,175.5C 380.5,177.167 379.167,178.5 377.5,179.5C 376.167,179.5 375.5,180.167 375.5,181.5C 375.167,182.5 374.5,183.167 373.5,183.5C 371.602,184.734 369.935,184.401 368.5,182.5C 367.833,179.833 366.167,178.167 363.5,177.5C 362.738,175.738 361.404,174.738 359.5,174.5C 358.738,172.738 357.404,171.738 355.5,171.5C 355.027,170.094 354.027,169.427 352.5,169.5C 351.508,169.672 350.842,169.338 350.5,168.5C 347.155,164.665 342.822,162.665 337.5,162.5C 333.077,159.47 328.077,157.803 322.5,157.5C 320.852,156.073 318.852,155.24 316.5,155C 309.833,154.333 303.167,154.333 296.5,155C 293.428,155.578 290.761,156.745 288.5,158.5C 285.911,158.461 283.911,159.461 282.5,161.5C 280.596,161.738 279.262,162.738 278.5,164.5C 278.167,165.5 277.5,166.167 276.5,166.5C 274.413,167.585 273.08,169.251 272.5,171.5C 265.431,181.056 262.431,191.89 263.5,204C 263.379,209.411 264.046,214.577 265.5,219.5C 266.657,222.273 267.324,225.273 267.5,228.5C 267.395,232.258 268.395,235.592 270.5,238.5C 270.018,241.831 271.018,244.497 273.5,246.5C 273.166,249.491 274.166,251.824 276.5,253.5C 277.674,254.514 278.34,255.847 278.5,257.5C 278.725,260.546 280.058,262.879 282.5,264.5C 282.427,266.027 283.094,267.027 284.5,267.5C 285.338,267.842 285.672,268.508 285.5,269.5C 285.738,271.404 286.738,272.738 288.5,273.5C 288.427,275.027 289.094,276.027 290.5,276.5C 290.738,278.404 291.738,279.738 293.5,280.5C 293.733,282.062 294.4,283.395 295.5,284.5C 285.309,285.031 275.309,286.031 265.5,287.5C 264.833,287.5 264.5,287.833 264.5,288.5C 261.375,289.479 258.042,289.813 254.5,289.5C 248.911,289.998 243.578,289.332 238.5,287.5C 236.877,284.785 236.21,281.785 236.5,278.5C 237.924,276.485 238.59,274.152 238.5,271.5C 239.924,269.485 240.59,267.152 240.5,264.5C 242.991,258.437 244.991,252.104 246.5,245.5C 248.461,243.68 248.794,241.68 247.5,239.5C 246.432,238.566 245.099,238.232 243.5,238.5C 234.384,236.88 225.051,236.213 215.5,236.5C 212.813,236.664 210.146,236.497 207.5,236C 206.529,234.519 205.196,233.685 203.5,233.5C 202.167,230.167 202.167,226.833 203.5,223.5C 204.906,223.027 205.573,222.027 205.5,220.5C 206.906,220.027 207.573,219.027 207.5,217.5C 211.911,212.352 215.578,206.686 218.5,200.5C 219.906,200.027 220.573,199.027 220.5,197.5C 221.906,197.027 222.573,196.027 222.5,194.5C 224.326,192.853 225.66,190.853 226.5,188.5C 228.32,186.871 229.653,184.871 230.5,182.5C 230.547,180.962 229.88,179.962 228.5,179.5C 226.869,175.879 224.535,172.879 221.5,170.5C 220.92,168.251 219.587,166.585 217.5,165.5C 217.262,163.596 216.262,162.262 214.5,161.5C 212.292,157.723 209.625,154.39 206.5,151.5C 204.78,148.111 204.113,144.444 204.5,140.5C 205.833,139.833 206.833,138.833 207.5,137.5C 219.221,133.93 230.555,129.597 241.5,124.5C 242.748,123.666 243.415,122.333 243.5,120.5C 242.441,115.209 241.775,109.876 241.5,104.5C 241.192,100.64 240.525,96.9736 239.5,93.5C 238.994,88.4767 238.327,83.4767 237.5,78.5C 236.769,73.9275 237.769,69.9275 240.5,66.5C 242.738,65.4634 245.071,65.2967 247.5,66C 259.345,69.8952 271.345,73.0619 283.5,75.5C 284.81,69.7118 285.477,63.7118 285.5,57.5C 287.052,47.5693 287.718,37.5693 287.5,27.5C 288.167,26.1667 289.167,25.1667 290.5,24.5C 293.833,23.1667 297.167,23.1667 300.5,24.5C 303.088,26.6246 306.088,27.9579 309.5,28.5C 314.484,30.3255 319.151,32.6589 323.5,35.5C 326.751,37.9569 330.418,39.6236 334.5,40.5C 336.17,40.7512 337.67,41.4178 339,42.5C 339.852,41.4293 340.685,40.4293 341.5,39.5C 342.906,39.0269 343.573,38.0269 343.5,36.5C 344.906,36.0269 345.573,35.0269 345.5,33.5C 346.906,33.0269 347.573,32.0269 347.5,30.5C 348.906,30.0269 349.573,29.0269 349.5,27.5C 350.906,27.0269 351.573,26.0269 351.5,24.5C 352.401,23.7095 353.068,22.7095 353.5,21.5C 353.328,20.5084 353.662,19.8417 354.5,19.5C 355.906,19.0269 356.573,18.0269 356.5,16.5C 357.906,16.0269 358.573,15.0269 358.5,13.5C 359.906,13.0269 360.573,12.0269 360.5,10.5C 361.906,10.0269 362.573,9.02694 362.5,7.5C 363.906,7.02694 364.573,6.02694 364.5,4.5C 367.581,1.80749 371.247,0.807488 375.5,1.5 Z M 308.5,109.5 C 308.973,110.906 309.973,111.573 311.5,111.5C 312.833,113.5 314.5,115.167 316.5,116.5C 316.427,118.027 317.094,119.027 318.5,119.5C 318.328,120.492 318.662,121.158 319.5,121.5C 321.292,125.589 322.959,129.756 324.5,134C 322.343,139.922 319.01,140.756 314.5,136.5C 314.672,135.508 314.338,134.842 313.5,134.5C 313.293,131.759 312.293,129.426 310.5,127.5C 310.262,125.596 309.262,124.262 307.5,123.5C 304.11,117.561 299.11,115.728 292.5,118C 291.619,118.708 290.953,119.542 290.5,120.5C 289.167,120.5 288.5,121.167 288.5,122.5C 287.094,122.973 286.427,123.973 286.5,125.5C 284.947,128.017 283.947,130.85 283.5,134C 284.517,136.473 284.517,138.973 283.5,141.5C 280.222,143.107 277.222,142.773 274.5,140.5C 273.259,132.117 274.592,124.117 278.5,116.5C 281.167,114.5 283.5,112.167 285.5,109.5C 289.241,108.273 293.074,107.273 297,106.5C 300.914,107.27 304.747,108.27 308.5,109.5 Z M 458.5,110.5 C 459.833,112.5 461.5,114.167 463.5,115.5C 467.706,123.329 469.206,131.663 468,140.5C 465.458,142.838 462.625,143.172 459.5,141.5C 459.672,140.508 459.338,139.842 458.5,139.5C 458.665,135.818 458.499,132.152 458,128.5C 457.768,127.263 457.268,126.263 456.5,125.5C 456.573,123.973 455.906,122.973 454.5,122.5C 454.586,121.504 454.252,120.671 453.5,120C 451.24,118.311 448.74,117.144 446,116.5C 443.467,116.95 441.3,117.95 439.5,119.5C 437.983,119.511 436.816,120.177 436,121.5C 434.579,123.405 433.412,125.405 432.5,127.5C 430.552,129.32 429.552,131.654 429.5,134.5C 427.249,138.628 423.915,139.961 419.5,138.5C 419.672,137.508 419.338,136.842 418.5,136.5C 418.674,134.139 419.007,131.806 419.5,129.5C 421.07,126.686 422.403,123.686 423.5,120.5C 424.906,120.027 425.573,119.027 425.5,117.5C 427.833,115.833 429.833,113.833 431.5,111.5C 432.167,111.5 432.5,111.167 432.5,110.5C 435.018,109.736 437.351,108.736 439.5,107.5C 442.799,106.624 446.132,106.457 449.5,107C 452.484,108.271 455.484,109.438 458.5,110.5 Z"/></g>
<g><path style="opacity:0.349" fill="#cce2fd" d="M 364.5,4.5 C 364.573,6.02694 363.906,7.02694 362.5,7.5C 362.427,5.97306 363.094,4.97306 364.5,4.5 Z"/></g>
<g><path style="opacity:0.361" fill="#c7dffd" d="M 378.5,4.5 C 379.906,4.97306 380.573,5.97306 380.5,7.5C 379.094,7.02694 378.427,6.02694 378.5,4.5 Z"/></g>
<g><path style="opacity:0.341" fill="#cfe3fd" d="M 362.5,7.5 C 362.573,9.02694 361.906,10.0269 360.5,10.5C 360.427,8.97306 361.094,7.97306 362.5,7.5 Z"/></g>
<g><path style="opacity:0.329" fill="#cce1fd" d="M 380.5,7.5 C 381.906,7.97306 382.573,8.97306 382.5,10.5C 381.094,10.0269 380.427,9.02694 380.5,7.5 Z"/></g>
<g><path style="opacity:0.322" fill="#d3e5fe" d="M 360.5,10.5 C 360.573,12.0269 359.906,13.0269 358.5,13.5C 358.427,11.9731 359.094,10.9731 360.5,10.5 Z"/></g>
<g><path style="opacity:0.961" fill="#99c3fb" d="M 382.5,10.5 C 383.89,11.8993 384.89,13.5659 385.5,15.5C 383.241,14.656 382.241,12.9893 382.5,10.5 Z"/></g>
<g><path style="opacity:0.298" fill="#d7e8fd" d="M 358.5,13.5 C 358.573,15.0269 357.906,16.0269 356.5,16.5C 356.427,14.9731 357.094,13.9731 358.5,13.5 Z"/></g>
<g><path style="opacity:0.408" fill="#bbd7fd" d="M 385.5,15.5 C 386.906,15.9731 387.573,16.9731 387.5,18.5C 386.094,18.0269 385.427,17.0269 385.5,15.5 Z"/></g>
<g><path style="opacity:0.271" fill="#dae9fd" d="M 356.5,16.5 C 356.573,18.0269 355.906,19.0269 354.5,19.5C 354.427,17.9731 355.094,16.9731 356.5,16.5 Z"/></g>
<g><path style="opacity:0.149" fill="#d0d5dd" d="M 387.5,18.5 C 390.292,19.3918 391.625,21.3918 391.5,24.5C 390.18,22.5368 388.846,20.5368 387.5,18.5 Z"/></g>
<g><path style="opacity:0.127" fill="#c1d1e6" d="M 300.5,24.5 C 297.167,23.1667 293.833,23.1667 290.5,24.5C 290.611,23.8826 290.944,23.3826 291.5,23C 294.167,22.3333 296.833,22.3333 299.5,23C 300.056,23.3826 300.389,23.8826 300.5,24.5 Z"/></g>
<g><path style="opacity:0.122" fill="#cbd6e4" d="M 353.5,21.5 C 353.068,22.7095 352.401,23.7095 351.5,24.5C 351.285,22.8212 351.952,21.8212 353.5,21.5 Z"/></g>
<g><path style="opacity:0.137" fill="#bbcce4" d="M 452.5,24.5 C 450.874,24.0617 449.207,23.7284 447.5,23.5C 444.37,25.0588 441.036,26.0588 437.5,26.5C 441.058,23.9855 445.058,22.3188 449.5,21.5C 450.855,22.1882 451.855,23.1882 452.5,24.5 Z"/></g>
<g><path style="opacity:0.169" fill="#cce2fd" d="M 300.5,24.5 C 303.912,25.0421 306.912,26.3754 309.5,28.5C 306.088,27.9579 303.088,26.6246 300.5,24.5 Z"/></g>
<g><path style="opacity:0.349" fill="#cbe1fd" d="M 351.5,24.5 C 351.573,26.0269 350.906,27.0269 349.5,27.5C 349.427,25.9731 350.094,24.9731 351.5,24.5 Z"/></g>
<g><path style="opacity:0.333" fill="#d0e4fd" d="M 349.5,27.5 C 349.573,29.0269 348.906,30.0269 347.5,30.5C 347.427,28.9731 348.094,27.9731 349.5,27.5 Z"/></g>
<g><path style="opacity:0.329" fill="#cce1fd" d="M 393.5,27.5 C 394.906,27.9731 395.573,28.9731 395.5,30.5C 394.094,30.0269 393.427,29.0269 393.5,27.5 Z"/></g>
<g><path style="opacity:0.314" fill="#d3e6fe" d="M 347.5,30.5 C 347.573,32.0269 346.906,33.0269 345.5,33.5C 345.427,31.9731 346.094,30.9731 347.5,30.5 Z"/></g>
<g><path style="opacity:0.957" fill="#9ac3fb" d="M 395.5,30.5 C 396.89,31.8993 397.89,33.5659 398.5,35.5C 396.241,34.656 395.241,32.9893 395.5,30.5 Z"/></g>
<g><path style="opacity:0.165" fill="#d4e6fd" d="M 423.5,33.5 C 422.22,34.9313 420.553,35.5979 418.5,35.5C 419.78,34.0687 421.447,33.4021 423.5,33.5 Z"/></g>
<g><path style="opacity:0.306" fill="#d6e8fd" d="M 345.5,33.5 C 345.573,35.0269 344.906,36.0269 343.5,36.5C 343.427,34.9731 344.094,33.9731 345.5,33.5 Z"/></g>
<g><path style="opacity:0.671" fill="#accefc" d="M 452.5,24.5 C 454.173,25.343 455.34,26.6763 456,28.5C 456.994,33.118 457.494,37.7847 457.5,42.5C 457.167,42.5 456.833,42.5 456.5,42.5C 456.096,36.2239 454.763,30.2239 452.5,24.5 Z"/></g>
<g><path style="opacity:0.314" fill="#c4d9f5" d="M 323.5,35.5 C 327.837,35.8717 331.504,37.5383 334.5,40.5C 330.418,39.6236 326.751,37.9569 323.5,35.5 Z"/></g>
<g><path style="opacity:0.396" fill="#bad7fc" d="M 398.5,35.5 C 399.906,35.9731 400.573,36.9731 400.5,38.5C 399.094,38.0269 398.427,37.0269 398.5,35.5 Z"/></g>
<g><path style="opacity:0.271" fill="#dbeafd" d="M 343.5,36.5 C 343.573,38.0269 342.906,39.0269 341.5,39.5C 341.427,37.9731 342.094,36.9731 343.5,36.5 Z"/></g>
<g><path style="opacity:0.388" fill="#bfdafc" d="M 400.5,38.5 C 401.906,38.9731 402.573,39.9731 402.5,41.5C 401.094,41.0269 400.427,40.0269 400.5,38.5 Z"/></g>
<g><path style="opacity:0.716" fill="#b6d4fc" d="M 287.5,27.5 C 287.718,37.5693 287.052,47.5693 285.5,57.5C 285.167,57.5 284.833,57.5 284.5,57.5C 284.917,48.8327 285.417,40.1661 286,31.5C 286.21,29.9419 286.71,28.6085 287.5,27.5 Z"/></g>
<g><path style="opacity:0.992" fill="#9ec5fc" d="M 456.5,42.5 C 456.833,42.5 457.167,42.5 457.5,42.5C 458.625,52.4618 459.292,62.4618 459.5,72.5C 459.285,74.1788 459.952,75.1788 461.5,75.5C 460.791,76.404 459.791,76.7373 458.5,76.5C 456.822,65.2495 456.155,53.9161 456.5,42.5 Z"/></g>
<g><path style="opacity:0.161" fill="#cfe2fc" d="M 283.5,70.5 C 283.5,72.1667 283.5,73.8333 283.5,75.5C 271.345,73.0619 259.345,69.8952 247.5,66C 245.071,65.2967 242.738,65.4634 240.5,66.5C 240.167,66.5 239.833,66.5 239.5,66.5C 239.611,65.8826 239.944,65.3826 240.5,65C 243.167,64.3333 245.833,64.3333 248.5,65C 259.765,68.4781 271.098,71.6448 282.5,74.5C 282.232,72.901 282.566,71.5676 283.5,70.5 Z"/></g>
<g><path style="opacity:0.729" fill="#b9d6fc" d="M 501.5,65.5 C 495.795,66.2907 490.129,67.2907 484.5,68.5C 489.894,65.3949 495.56,64.3949 501.5,65.5 Z"/></g>
<g><path style="opacity:0.584" fill="#b7d5fc" d="M 284.5,57.5 C 284.833,57.5 285.167,57.5 285.5,57.5C 285.477,63.7118 284.81,69.7118 283.5,75.5C 283.5,73.8333 283.5,72.1667 283.5,70.5C 283.182,65.9677 283.515,61.6344 284.5,57.5 Z"/></g>
<g><path style="opacity:0.761" fill="#9bc5fc" d="M 239.5,66.5 C 239.833,66.5 240.167,66.5 240.5,66.5C 237.769,69.9275 236.769,73.9275 237.5,78.5C 236.523,75.7131 236.19,72.7131 236.5,69.5C 237.167,68.1667 238.167,67.1667 239.5,66.5 Z"/></g>
<g><path style="opacity:0.604" fill="#bcd8fd" d="M 484.5,68.5 C 477.234,71.8082 469.567,74.1415 461.5,75.5C 459.952,75.1788 459.285,74.1788 459.5,72.5C 460.156,73.2778 460.989,73.9444 462,74.5C 469.454,72.2618 476.954,70.2618 484.5,68.5 Z"/></g>
<g><path style="opacity:0.149" fill="#d5e5f9" d="M 236.5,69.5 C 236.19,72.7131 236.523,75.7131 237.5,78.5C 238.327,83.4767 238.994,88.4767 239.5,93.5C 239.5,96.1667 239.5,98.8333 239.5,101.5C 237.772,92.7009 236.439,83.7009 235.5,74.5C 235.507,72.6307 235.84,70.964 236.5,69.5 Z"/></g>
<g><path style="opacity:0.4" fill="#9bc5fc" d="M 239.5,93.5 C 240.525,96.9736 241.192,100.64 241.5,104.5C 240.833,103.5 240.167,102.5 239.5,101.5C 239.5,98.8333 239.5,96.1667 239.5,93.5 Z"/></g>
<g><path style="opacity:0.465" fill="#b1cff6" d="M 458.5,110.5 C 455.484,109.438 452.484,108.271 449.5,107C 446.132,106.457 442.799,106.624 439.5,107.5C 441.048,106.206 443.048,105.539 445.5,105.5C 448.903,105.561 452.236,106.061 455.5,107C 457.063,107.759 458.063,108.926 458.5,110.5 Z"/></g>
<g><path style="opacity:0.443" fill="#c6defd" d="M 239.5,101.5 C 240.167,102.5 240.833,103.5 241.5,104.5C 241.775,109.876 242.441,115.209 243.5,120.5C 243.415,122.333 242.748,123.666 241.5,124.5C 241.167,124.5 240.833,124.5 240.5,124.5C 241.075,122.924 241.408,121.258 241.5,119.5C 240.551,113.524 239.884,107.524 239.5,101.5 Z"/></g>
<g><path style="opacity:0.467" fill="#bbd4f6" d="M 308.5,109.5 C 304.747,108.27 300.914,107.27 297,106.5C 293.074,107.273 289.241,108.273 285.5,109.5C 288.47,106.124 292.304,104.79 297,105.5C 301.696,104.79 305.53,106.124 308.5,109.5 Z"/></g>
<g><path style="opacity:0.322" fill="#c2d8f6" d="M 439.5,107.5 C 437.351,108.736 435.018,109.736 432.5,110.5C 434.036,107.908 436.369,106.908 439.5,107.5 Z"/></g>
<g><path style="opacity:0.31" fill="#cedff5" d="M 308.5,109.5 C 310.027,109.427 311.027,110.094 311.5,111.5C 309.973,111.573 308.973,110.906 308.5,109.5 Z"/></g>
<g><path style="opacity:0.588" fill="#bfd7f6" d="M 458.5,110.5 C 461.167,111.167 462.833,112.833 463.5,115.5C 461.5,114.167 459.833,112.5 458.5,110.5 Z"/></g>
<g><path style="opacity:0.616" fill="#b9d3f6" d="M 311.5,111.5 C 314.167,112.167 315.833,113.833 316.5,116.5C 314.5,115.167 312.833,113.5 311.5,111.5 Z"/></g>
<g><path style="opacity:0.004" fill="#c8dbf5" d="M 285.5,109.5 C 283.5,112.167 281.167,114.5 278.5,116.5C 279.833,113.167 282.167,110.833 285.5,109.5 Z"/></g>
<g><path style="opacity:0.196" fill="#c4d9f5" d="M 431.5,111.5 C 429.833,113.833 427.833,115.833 425.5,117.5C 426.5,114.5 428.5,112.5 431.5,111.5 Z"/></g>
<g><path style="opacity:0.267" fill="#bcd5f6" d="M 454.5,122.5 C 450.097,118.632 445.097,117.632 439.5,119.5C 441.3,117.95 443.467,116.95 446,116.5C 448.74,117.144 451.24,118.311 453.5,120C 454.252,120.671 454.586,121.504 454.5,122.5 Z"/></g>
<g><path style="opacity:0.353" fill="#bbd5f6" d="M 307.5,123.5 C 302.503,118.312 296.836,117.312 290.5,120.5C 290.953,119.542 291.619,118.708 292.5,118C 299.11,115.728 304.11,117.561 307.5,123.5 Z"/></g>
<g><path style="opacity:0.176" fill="#d7e4f5" d="M 316.5,116.5 C 317.906,116.973 318.573,117.973 318.5,119.5C 317.094,119.027 316.427,118.027 316.5,116.5 Z"/></g>
<g><path style="opacity:0.22" fill="#ccdef6" d="M 425.5,117.5 C 425.573,119.027 424.906,120.027 423.5,120.5C 423.427,118.973 424.094,117.973 425.5,117.5 Z"/></g>
<g><path style="opacity:0.286" fill="#c4daf5" d="M 290.5,120.5 C 290.167,121.5 289.5,122.167 288.5,122.5C 288.5,121.167 289.167,120.5 290.5,120.5 Z"/></g>
<g><path style="opacity:0.208" fill="#cddef5" d="M 319.5,121.5 C 323.58,125.663 325.413,130.663 325,136.5C 323.309,140.213 320.475,141.379 316.5,140C 315.177,139.184 314.511,138.017 314.5,136.5C 319.01,140.756 322.343,139.922 324.5,134C 322.959,129.756 321.292,125.589 319.5,121.5 Z"/></g>
<g><path style="opacity:0.071" fill="#bed6f6" d="M 278.5,116.5 C 274.592,124.117 273.259,132.117 274.5,140.5C 273.778,140.082 273.278,139.416 273,138.5C 271.413,130.179 273.247,122.846 278.5,116.5 Z"/></g>
<g><path style="opacity:0.306" fill="#bfd7f6" d="M 288.5,122.5 C 288.573,124.027 287.906,125.027 286.5,125.5C 286.427,123.973 287.094,122.973 288.5,122.5 Z"/></g>
<g><path style="opacity:0.31" fill="#c8dbf5" d="M 423.5,120.5 C 422.403,123.686 421.07,126.686 419.5,129.5C 419.502,125.835 420.835,122.835 423.5,120.5 Z"/></g>
<g><path style="opacity:0.302" fill="#bfd7f5" d="M 454.5,122.5 C 455.906,122.973 456.573,123.973 456.5,125.5C 455.094,125.027 454.427,124.027 454.5,122.5 Z"/></g>
<g><path style="opacity:0.408" fill="#bad4f6" d="M 307.5,123.5 C 309.262,124.262 310.262,125.596 310.5,127.5C 308.738,126.738 307.738,125.404 307.5,123.5 Z"/></g>
<g><path style="opacity:0.502" fill="#bad4f6" d="M 439.5,119.5 C 437.628,122.582 435.295,125.249 432.5,127.5C 433.412,125.405 434.579,123.405 436,121.5C 436.816,120.177 437.983,119.511 439.5,119.5 Z"/></g>
<g><path style="opacity:0.58" fill="#b7d5fc" d="M 240.5,124.5 C 240.833,124.5 241.167,124.5 241.5,124.5C 230.555,129.597 219.221,133.93 207.5,137.5C 218.067,132.395 229.067,128.061 240.5,124.5 Z"/></g>
<g><path style="opacity:0.376" fill="#bed8fb" d="M 503.5,66.5 C 506.106,68.0391 507.439,70.3724 507.5,73.5C 505.489,89.8967 503.156,106.23 500.5,122.5C 511.556,127.468 522.889,131.968 534.5,136C 536.063,136.759 537.063,137.926 537.5,139.5C 525.131,134.21 512.631,129.21 500,124.5C 501.553,108.339 503.386,92.1726 505.5,76C 505.67,72.5679 505.004,69.4012 503.5,66.5 Z"/></g>
<g><path style="opacity:0.824" fill="#accbf7" d="M 310.5,127.5 C 312.293,129.426 313.293,131.759 313.5,134.5C 311.166,132.824 310.166,130.491 310.5,127.5 Z"/></g>
<g><path style="opacity:0.169" fill="#bdd6f6" d="M 456.5,125.5 C 457.268,126.263 457.768,127.263 458,128.5C 458.499,132.152 458.665,135.818 458.5,139.5C 457.578,135.005 456.911,130.338 456.5,125.5 Z"/></g>
<g><path style="opacity:0.298" fill="#cddef5" d="M 419.5,129.5 C 419.007,131.806 418.674,134.139 418.5,136.5C 417.133,133.988 417.466,131.655 419.5,129.5 Z"/></g>
<g><path style="opacity:0.792" fill="#b2cff6" d="M 432.5,127.5 C 432.241,130.272 431.241,132.605 429.5,134.5C 429.552,131.654 430.552,129.32 432.5,127.5 Z"/></g>
<g><path style="opacity:0.435" fill="#c5daf5" d="M 286.5,125.5 C 285.935,130.149 285.435,134.816 285,139.5C 284.722,140.416 284.222,141.082 283.5,141.5C 284.517,138.973 284.517,136.473 283.5,134C 283.947,130.85 284.947,128.017 286.5,125.5 Z"/></g>
<g><path style="opacity:0.263" fill="#cee3fd" d="M 207.5,137.5 C 206.833,138.833 205.833,139.833 204.5,140.5C 204.5,138.5 205.5,137.5 207.5,137.5 Z"/></g>
<g><path style="opacity:0.498" fill="#bdd6f6" d="M 429.5,134.5 C 428.491,139.346 425.491,141.18 420.5,140C 419.944,139.617 419.611,139.117 419.5,138.5C 423.915,139.961 427.249,138.628 429.5,134.5 Z"/></g>
<g><path style="opacity:0.047" fill="#ccdef5" d="M 274.5,140.5 C 277.222,142.773 280.222,143.107 283.5,141.5C 282.508,143.026 281.008,143.693 279,143.5C 276.374,143.95 274.874,142.95 274.5,140.5 Z"/></g>
<g><path style="opacity:0.063" fill="#c6daf6" d="M 463.5,115.5 C 466.324,117.8 468.157,120.8 469,124.5C 470.418,129.428 470.751,134.428 470,139.5C 467.947,143.292 464.781,144.458 460.5,143C 459.944,142.617 459.611,142.117 459.5,141.5C 462.625,143.172 465.458,142.838 468,140.5C 469.206,131.663 467.706,123.329 463.5,115.5 Z"/></g>
<g><path style="opacity:0.565" fill="#c5dbf9" d="M 204.5,140.5 C 204.113,144.444 204.78,148.111 206.5,151.5C 203.958,149.752 202.624,147.252 202.5,144C 202.387,142.301 203.053,141.134 204.5,140.5 Z"/></g>
<g><path style="opacity:0.584" fill="#bad5f7" d="M 537.5,139.5 C 541.116,142.082 541.45,145.082 538.5,148.5C 538.632,145.43 538.299,142.43 537.5,139.5 Z"/></g>
<g><path style="opacity:0.11" fill="#cae0fd" d="M 538.5,148.5 C 538.573,150.027 537.906,151.027 536.5,151.5C 536.427,149.973 537.094,148.973 538.5,148.5 Z"/></g>
<g><path style="opacity:0.102" fill="#cee3fd" d="M 535.5,152.5 C 535.262,154.404 534.262,155.738 532.5,156.5C 532.738,154.596 533.738,153.262 535.5,152.5 Z"/></g>
<g><path style="opacity:0.413" fill="#b7d5fc" d="M 425.5,155.5 C 431.987,154.346 438.654,154.179 445.5,155C 446.416,155.278 447.082,155.778 447.5,156.5C 443.158,156.261 438.824,155.927 434.5,155.5C 431.5,155.5 428.5,155.5 425.5,155.5 Z"/></g>
<g><path style="opacity:0.439" fill="#c4d9f4" d="M 206.5,151.5 C 209.625,154.39 212.292,157.723 214.5,161.5C 210.724,159.057 208.057,155.724 206.5,151.5 Z"/></g>
<g><path style="opacity:0.153" fill="#cae0fd" d="M 322.5,157.5 C 316.65,157.04 310.817,156.373 305,155.5C 299.476,156.438 293.976,157.438 288.5,158.5C 290.761,156.745 293.428,155.578 296.5,155C 303.167,154.333 309.833,154.333 316.5,155C 318.852,155.24 320.852,156.073 322.5,157.5 Z"/></g>
<g><path style="opacity:0.286" fill="#d1e2f8" d="M 322.5,157.5 C 328.077,157.803 333.077,159.47 337.5,162.5C 332.243,161.277 327.243,159.611 322.5,157.5 Z"/></g>
<g><path style="opacity:0.6" fill="#bdd8fd" d="M 451.5,157.5 C 453.698,157.12 455.365,157.787 456.5,159.5C 454.597,159.204 452.93,158.537 451.5,157.5 Z"/></g>
<g><path style="opacity:0.29" fill="#cbe1fd" d="M 288.5,158.5 C 286.819,160.008 284.819,161.008 282.5,161.5C 283.911,159.461 285.911,158.461 288.5,158.5 Z"/></g>
<g><path style="opacity:0.231" fill="#d2e5fd" d="M 425.5,155.5 C 428.5,155.5 431.5,155.5 434.5,155.5C 425.45,156.713 416.45,158.713 407.5,161.5C 412.904,158.143 418.904,156.143 425.5,155.5 Z"/></g>
<g><path style="opacity:0.004" fill="#cce1fd" d="M 531.5,157.5 C 531.262,159.404 530.262,160.738 528.5,161.5C 528.738,159.596 529.738,158.262 531.5,157.5 Z"/></g>
<g><path style="opacity:0.302" fill="#c1dafd" d="M 456.5,159.5 C 458.989,159.241 460.656,160.241 461.5,162.5C 459.566,161.89 457.899,160.89 456.5,159.5 Z"/></g>
<g><path style="opacity:0.082" fill="#d3e6fe" d="M 214.5,161.5 C 216.262,162.262 217.262,163.596 217.5,165.5C 215.738,164.738 214.738,163.404 214.5,161.5 Z"/></g>
<g><path style="opacity:0.188" fill="#cde2fd" d="M 282.5,161.5 C 281.738,163.262 280.404,164.262 278.5,164.5C 279.262,162.738 280.596,161.738 282.5,161.5 Z"/></g>
<g><path style="opacity:0.812" fill="#b3d2fc" d="M 337.5,162.5 C 342.822,162.665 347.155,164.665 350.5,168.5C 345.978,166.736 341.645,164.736 337.5,162.5 Z"/></g>
<g><path style="opacity:0.545" fill="#c8dffd" d="M 461.5,162.5 C 463.404,162.738 464.738,163.738 465.5,165.5C 463.596,165.262 462.262,164.262 461.5,162.5 Z"/></g>
<g><path style="opacity:0.106" fill="#c9e0fd" d="M 527.5,162.5 C 527.262,164.404 526.262,165.738 524.5,166.5C 524.738,164.596 525.738,163.262 527.5,162.5 Z"/></g>
<g><path style="opacity:0.059" fill="#d8e8fd" d="M 217.5,165.5 C 219.587,166.585 220.92,168.251 221.5,170.5C 219.413,169.415 218.08,167.749 217.5,165.5 Z"/></g>
<g><path style="opacity:0.267" fill="#cde2fd" d="M 407.5,161.5 C 402.023,164.403 396.357,167.07 390.5,169.5C 395.489,165.507 401.156,162.84 407.5,161.5 Z"/></g>
<g><path style="opacity:0.471" fill="#bfdafd" d="M 465.5,165.5 C 467.531,166.539 468.864,168.205 469.5,170.5C 467.457,169.421 466.124,167.754 465.5,165.5 Z"/></g>
<g><path style="opacity:0.008" fill="#cbe1fd" d="M 523.5,167.5 C 523.573,169.027 522.906,170.027 521.5,170.5C 521.427,168.973 522.094,167.973 523.5,167.5 Z"/></g>
<g><path style="opacity:0.2" fill="#c8dffd" d="M 276.5,166.5 C 275.92,168.749 274.587,170.415 272.5,171.5C 273.08,169.251 274.413,167.585 276.5,166.5 Z"/></g>
<g><path style="opacity:0.341" fill="#cae0fe" d="M 352.5,169.5 C 354.027,169.427 355.027,170.094 355.5,171.5C 353.973,171.573 352.973,170.906 352.5,169.5 Z"/></g>
<g><path style="opacity:0.09" fill="#c4d3e5" d="M 390.5,169.5 C 390.027,170.906 389.027,171.573 387.5,171.5C 387.973,170.094 388.973,169.427 390.5,169.5 Z"/></g>
<g><path style="opacity:0.467" fill="#c7defd" d="M 221.5,170.5 C 224.535,172.879 226.869,175.879 228.5,179.5C 225.453,177.082 223.12,174.082 221.5,170.5 Z"/></g>
<g><path style="opacity:0.455" fill="#c8dffd" d="M 355.5,171.5 C 357.404,171.738 358.738,172.738 359.5,174.5C 357.596,174.262 356.262,173.262 355.5,171.5 Z"/></g>
<g><path style="opacity:0.004" fill="#d7e8fe" d="M 387.5,171.5 C 387.027,172.906 386.027,173.573 384.5,173.5C 384.973,172.094 385.973,171.427 387.5,171.5 Z"/></g>
<g><path style="opacity:0.192" fill="#d4e6fd" d="M 469.5,170.5 C 470.906,170.973 471.573,171.973 471.5,173.5C 470.094,173.027 469.427,172.027 469.5,170.5 Z"/></g>
<g><path style="opacity:0.004" fill="#d1e4fd" d="M 520.5,171.5 C 520.262,173.404 519.262,174.738 517.5,175.5C 517.738,173.596 518.738,172.262 520.5,171.5 Z"/></g>
<g><path style="opacity:0.114" fill="#d0e3fd" d="M 384.5,173.5 C 384.027,174.906 383.027,175.573 381.5,175.5C 381.973,174.094 382.973,173.427 384.5,173.5 Z"/></g>
<g><path style="opacity:0.439" fill="#cfe3fe" d="M 359.5,174.5 C 361.404,174.738 362.738,175.738 363.5,177.5C 361.596,177.262 360.262,176.262 359.5,174.5 Z"/></g>
<g><path style="opacity:0.667" fill="#b5d3fc" d="M 363.5,177.5 C 366.167,178.167 367.833,179.833 368.5,182.5C 366.5,181.167 364.833,179.5 363.5,177.5 Z"/></g>
<g><path style="opacity:0.004" fill="#cee3fe" d="M 516.5,176.5 C 516.262,178.404 515.262,179.738 513.5,180.5C 513.738,178.596 514.738,177.262 516.5,176.5 Z"/></g>
<g><path style="opacity:0.322" fill="#c2daf9" d="M 272.5,171.5 C 265.112,186.886 262.778,202.886 265.5,219.5C 264.046,214.577 263.379,209.411 263.5,204C 262.431,191.89 265.431,181.056 272.5,171.5 Z"/></g>
<g><path style="opacity:0.012" fill="#d4e6fd" d="M 377.5,179.5 C 377.167,180.5 376.5,181.167 375.5,181.5C 375.5,180.167 376.167,179.5 377.5,179.5 Z"/></g>
<g><path style="opacity:0.69" fill="#b6d4fc" d="M 326.5,184.5 C 321.463,184.413 316.463,184.746 311.5,185.5C 316.324,182.039 321.324,181.706 326.5,184.5 Z"/></g>
<g><path style="opacity:0.078" fill="#d7e8fd" d="M 368.5,182.5 C 369.935,184.401 371.602,184.734 373.5,183.5C 373.585,184.995 372.919,185.995 371.5,186.5C 369.712,185.717 368.712,184.384 368.5,182.5 Z"/></g>
<g><path style="opacity:1" fill="#68a9fa" d="M 326.5,184.5 C 327.436,185.974 328.77,186.974 330.5,187.5C 330.673,192.323 328.339,194.323 323.5,193.5C 323.167,193.5 322.833,193.5 322.5,193.5C 321.551,192.848 320.385,192.514 319,192.5C 316.992,192.307 315.492,192.974 314.5,194.5C 314.167,195.5 313.5,196.167 312.5,196.5C 311.007,197.312 310.34,198.645 310.5,200.5C 310.52,201.726 310.853,202.726 311.5,203.5C 312.248,205.332 313.248,206.999 314.5,208.5C 314.611,209.117 314.944,209.617 315.5,210C 317,210.167 318.5,210.333 320,210.5C 321.986,210.431 323.486,209.765 324.5,208.5C 326.5,208.5 327.5,207.5 327.5,205.5C 327.5,205.167 327.5,204.833 327.5,204.5C 329.026,201.107 331.693,199.774 335.5,200.5C 336.369,202.717 336.702,205.05 336.5,207.5C 335.647,211.02 333.647,213.687 330.5,215.5C 328.181,215.992 326.181,216.992 324.5,218.5C 320.131,218.533 315.798,218.2 311.5,217.5C 310.738,215.738 309.404,214.738 307.5,214.5C 306.5,214.167 305.833,213.5 305.5,212.5C 302.349,206.47 301.682,200.137 303.5,193.5C 306.5,191.167 309.167,188.5 311.5,185.5C 316.463,184.746 321.463,184.413 326.5,184.5 Z"/></g>
<g><path style="opacity:0.999" fill="#69a9fa" d="M 416.5,184.5 C 422.835,183.856 428.835,184.856 434.5,187.5C 435.5,187.833 436.167,188.5 436.5,189.5C 436.738,191.404 437.738,192.738 439.5,193.5C 439.5,194.833 439.5,196.167 439.5,197.5C 439.628,201.881 439.295,206.215 438.5,210.5C 437.92,212.749 436.587,214.415 434.5,215.5C 432.973,215.427 431.973,216.094 431.5,217.5C 426.167,218.833 420.833,218.833 415.5,217.5C 415.027,216.094 414.027,215.427 412.5,215.5C 410.833,214.5 409.5,213.167 408.5,211.5C 406.705,207.895 406.372,204.228 407.5,200.5C 411.307,199.774 413.974,201.107 415.5,204.5C 416.338,204.842 416.672,205.508 416.5,206.5C 416.539,207.583 416.873,208.583 417.5,209.5C 420.645,210.803 423.645,210.803 426.5,209.5C 427.795,208.512 429.128,207.512 430.5,206.5C 432.427,203.863 432.927,200.863 432,197.5C 431.578,195.574 430.411,194.574 428.5,194.5C 425.57,193.701 422.57,193.368 419.5,193.5C 416.812,193.834 414.479,193.168 412.5,191.5C 412.961,188.697 414.295,186.363 416.5,184.5 Z"/></g>
<g><path style="opacity:0.843" fill="#aacdfc" d="M 513.5,180.5 C 513.629,182.216 513.962,183.883 514.5,185.5C 513.351,185.209 512.684,184.376 512.5,183C 512.528,181.93 512.861,181.097 513.5,180.5 Z"/></g>
<g><path style="opacity:0.271" fill="#cee2fd" d="M 228.5,179.5 C 229.88,179.962 230.547,180.962 230.5,182.5C 229.653,184.871 228.32,186.871 226.5,188.5C 226.962,186.243 227.962,184.243 229.5,182.5C 228.873,181.583 228.539,180.583 228.5,179.5 Z"/></g>
<g><path style="opacity:0.204" fill="#c6d6ec" d="M 326.5,184.5 C 328.973,184.088 330.306,185.088 330.5,187.5C 328.77,186.974 327.436,185.974 326.5,184.5 Z"/></g>
<g><path style="opacity:0.341" fill="#bdd8fc" d="M 434.5,187.5 C 428.835,184.856 422.835,183.856 416.5,184.5C 423.13,181.358 429.13,182.358 434.5,187.5 Z"/></g>
<g><path style="opacity:0.369" fill="#bdd9fc" d="M 514.5,185.5 C 515.906,185.973 516.573,186.973 516.5,188.5C 515.094,188.027 514.427,187.027 514.5,185.5 Z"/></g>
<g><path style="opacity:0.714" fill="#a0c8fc" d="M 311.5,185.5 C 309.167,188.5 306.5,191.167 303.5,193.5C 305.167,189.833 307.833,187.167 311.5,185.5 Z"/></g>
<g><path style="opacity:0.035" fill="#d3e6fd" d="M 416.5,184.5 C 414.295,186.363 412.961,188.697 412.5,191.5C 411.061,187.878 412.394,185.544 416.5,184.5 Z"/></g>
<g><path style="opacity:0.667" fill="#afd0fc" d="M 436.5,189.5 C 438.262,190.262 439.262,191.596 439.5,193.5C 437.738,192.738 436.738,191.404 436.5,189.5 Z"/></g>
<g><path style="opacity:0.369" fill="#bfdafd" d="M 516.5,188.5 C 517.906,188.973 518.573,189.973 518.5,191.5C 517.094,191.027 516.427,190.027 516.5,188.5 Z"/></g>
<g><path style="opacity:0.082" fill="#d2e5fd" d="M 322.5,193.5 C 319.763,193.401 317.096,193.735 314.5,194.5C 315.492,192.974 316.992,192.307 319,192.5C 320.385,192.514 321.551,192.848 322.5,193.5 Z"/></g>
<g><path style="opacity:0.349" fill="#c7dffd" d="M 226.5,188.5 C 225.66,190.853 224.326,192.853 222.5,194.5C 222.845,191.802 224.178,189.802 226.5,188.5 Z"/></g>
<g><path style="opacity:0.043" fill="#ceddf0" d="M 330.5,187.5 C 331.754,189.357 331.754,191.357 330.5,193.5C 328.027,194.797 325.693,194.797 323.5,193.5C 328.339,194.323 330.673,192.323 330.5,187.5 Z"/></g>
<g><path style="opacity:0.22" fill="#c9e0fd" d="M 412.5,191.5 C 414.479,193.168 416.812,193.834 419.5,193.5C 417.712,194.622 415.712,194.789 413.5,194C 412.748,193.329 412.414,192.496 412.5,191.5 Z"/></g>
<g><path style="opacity:0.365" fill="#c2dcfd" d="M 518.5,191.5 C 519.906,191.973 520.573,192.973 520.5,194.5C 519.094,194.027 518.427,193.027 518.5,191.5 Z"/></g>
<g><path style="opacity:0.663" fill="#c4daf8" d="M 428.5,194.5 C 430.411,194.574 431.578,195.574 432,197.5C 432.927,200.863 432.427,203.863 430.5,206.5C 430.244,204.208 430.577,202.041 431.5,200C 430.777,197.982 429.777,196.148 428.5,194.5 Z"/></g>
<g><path style="opacity:0.341" fill="#c6defd" d="M 222.5,194.5 C 222.573,196.027 221.906,197.027 220.5,197.5C 220.427,195.973 221.094,194.973 222.5,194.5 Z"/></g>
<g><path style="opacity:0.337" fill="#c4ddfd" d="M 520.5,194.5 C 521.906,194.973 522.573,195.973 522.5,197.5C 521.094,197.027 520.427,196.027 520.5,194.5 Z"/></g>
<g><path style="opacity:0.2" fill="#c5dcf9" d="M 303.5,193.5 C 301.682,200.137 302.349,206.47 305.5,212.5C 302.517,209.527 300.85,205.86 300.5,201.5C 301.009,198.538 302.009,195.871 303.5,193.5 Z"/></g>
<g><path style="opacity:0.341" fill="#c7dffd" d="M 220.5,197.5 C 220.573,199.027 219.906,200.027 218.5,200.5C 218.427,198.973 219.094,197.973 220.5,197.5 Z"/></g>
<g><path style="opacity:0.471" fill="#bfd4f1" d="M 335.5,200.5 C 331.693,199.774 329.026,201.107 327.5,204.5C 327.731,201.1 329.564,199.1 333,198.5C 333.995,199.066 334.828,199.733 335.5,200.5 Z"/></g>
<g><path style="opacity:0.467" fill="#c4daf6" d="M 415.5,204.5 C 413.974,201.107 411.307,199.774 407.5,200.5C 409.145,198.19 411.145,198.023 413.5,200C 415.037,201.11 415.703,202.61 415.5,204.5 Z"/></g>
<g><path style="opacity:0.325" fill="#c0d8f6" d="M 439.5,193.5 C 442.341,197.781 442.675,202.114 440.5,206.5C 440.81,203.287 440.477,200.287 439.5,197.5C 439.5,196.167 439.5,194.833 439.5,193.5 Z"/></g>
<g><path style="opacity:0.306" fill="#c6defd" d="M 522.5,197.5 C 523.906,197.973 524.573,198.973 524.5,200.5C 523.094,200.027 522.427,199.027 522.5,197.5 Z"/></g>
<g><path style="opacity:0.125" fill="#c0d6f3" d="M 312.5,196.5 C 311.781,198.764 311.448,201.097 311.5,203.5C 310.853,202.726 310.52,201.726 310.5,200.5C 310.34,198.645 311.007,197.312 312.5,196.5 Z"/></g>
<g><path style="opacity:0.945" fill="#89bafa" d="M 439.5,197.5 C 440.477,200.287 440.81,203.287 440.5,206.5C 440.771,208.38 440.104,209.713 438.5,210.5C 439.295,206.215 439.628,201.881 439.5,197.5 Z"/></g>
<g><path style="opacity:0.322" fill="#bdd5f5" d="M 218.5,200.5 C 215.578,206.686 211.911,212.352 207.5,217.5C 210.422,211.314 214.089,205.648 218.5,200.5 Z"/></g>
<g><path style="opacity:0.337" fill="#b8cfec" d="M 524.5,200.5 C 525.906,200.973 526.573,201.973 526.5,203.5C 525.094,203.027 524.427,202.027 524.5,200.5 Z"/></g>
<g><path style="opacity:0.227" fill="#c8dbf5" d="M 335.5,200.5 C 336.725,201.152 337.392,202.319 337.5,204C 337.486,205.385 337.152,206.551 336.5,207.5C 336.702,205.05 336.369,202.717 335.5,200.5 Z"/></g>
<g><path style="opacity:0.2" fill="#cadef8" d="M 407.5,200.5 C 406.372,204.228 406.705,207.895 408.5,211.5C 406.452,209.544 405.452,207.044 405.5,204C 405.608,202.319 406.275,201.152 407.5,200.5 Z"/></g>
<g><path style="opacity:0.267" fill="#cce1fd" d="M 526.5,203.5 C 527.906,203.973 528.573,204.973 528.5,206.5C 527.094,206.027 526.427,205.027 526.5,203.5 Z"/></g>
<g><path style="opacity:0.643" fill="#b4d3fc" d="M 327.5,205.5 C 327.5,207.5 326.5,208.5 324.5,208.5C 325.167,207.167 326.167,206.167 327.5,205.5 Z"/></g>
<g><path style="opacity:0.255" fill="#cee3fd" d="M 528.5,206.5 C 529.906,206.973 530.573,207.973 530.5,209.5C 529.094,209.027 528.427,208.027 528.5,206.5 Z"/></g>
<g><path style="opacity:0.139" fill="#b8d5fc" d="M 314.5,208.5 C 317.833,209.833 321.167,209.833 324.5,208.5C 323.486,209.765 321.986,210.431 320,210.5C 318.5,210.333 317,210.167 315.5,210C 314.944,209.617 314.611,209.117 314.5,208.5 Z"/></g>
<g><path style="opacity:0.992" fill="#aaccfc" d="M 416.5,206.5 C 419.329,208.978 422.662,209.978 426.5,209.5C 423.645,210.803 420.645,210.803 417.5,209.5C 416.873,208.583 416.539,207.583 416.5,206.5 Z"/></g>
<g><path style="opacity:0.38" fill="#bdd8fc" d="M 531.5,211.5 C 532.906,211.973 533.573,212.973 533.5,214.5C 532.094,214.027 531.427,213.027 531.5,211.5 Z"/></g>
<g><path style="opacity:0.612" fill="#c0dafd" d="M 307.5,214.5 C 309.404,214.738 310.738,215.738 311.5,217.5C 309.596,217.262 308.262,216.262 307.5,214.5 Z"/></g>
<g><path style="opacity:0.286" fill="#cbe1fd" d="M 412.5,215.5 C 414.027,215.427 415.027,216.094 415.5,217.5C 413.973,217.573 412.973,216.906 412.5,215.5 Z"/></g>
<g><path style="opacity:0.059" fill="#e0edfe" d="M 434.5,215.5 C 434.027,216.906 433.027,217.573 431.5,217.5C 431.973,216.094 432.973,215.427 434.5,215.5 Z"/></g>
<g><path style="opacity:0.329" fill="#cce1fc" d="M 471.5,173.5 C 474.69,177.214 476.857,181.547 478,186.5C 481.132,208.031 478.299,228.698 469.5,248.5C 469.167,248.5 468.833,248.5 468.5,248.5C 473.793,234.826 477.126,220.659 478.5,206C 478.295,194.814 475.961,183.98 471.5,173.5 Z"/></g>
<g><path style="opacity:0.384" fill="#bfdafc" d="M 533.5,214.5 C 534.906,214.973 535.573,215.973 535.5,217.5C 534.094,217.027 533.427,216.027 533.5,214.5 Z"/></g>
<g><path style="opacity:0.176" fill="#ccddf4" d="M 330.5,215.5 C 329.216,217.614 327.216,218.614 324.5,218.5C 326.181,216.992 328.181,215.992 330.5,215.5 Z"/></g>
<g><path style="opacity:0.482" fill="#cfe3fd" d="M 311.5,217.5 C 315.798,218.2 320.131,218.533 324.5,218.5C 320.102,220.67 315.769,220.337 311.5,217.5 Z"/></g>
<g><path style="opacity:0.145" fill="#d3e5fe" d="M 415.5,217.5 C 420.833,218.833 426.167,218.833 431.5,217.5C 426.122,221.305 420.788,221.305 415.5,217.5 Z"/></g>
<g><path style="opacity:0.369" fill="#c2dcfd" d="M 207.5,217.5 C 207.573,219.027 206.906,220.027 205.5,220.5C 205.427,218.973 206.094,217.973 207.5,217.5 Z"/></g>
<g><path style="opacity:0.373" fill="#c1dbfd" d="M 535.5,217.5 C 536.906,217.973 537.573,218.973 537.5,220.5C 536.094,220.027 535.427,219.027 535.5,217.5 Z"/></g>
<g><path style="opacity:0.353" fill="#c4ddfd" d="M 205.5,220.5 C 205.573,222.027 204.906,223.027 203.5,223.5C 203.427,221.973 204.094,220.973 205.5,220.5 Z"/></g>
<g><path style="opacity:0.345" fill="#c3dcfd" d="M 537.5,220.5 C 538.906,220.973 539.573,221.973 539.5,223.5C 538.094,223.027 537.427,222.027 537.5,220.5 Z"/></g>
<g><path style="opacity:0.161" fill="#d3e6fe" d="M 203.5,223.5 C 202.167,226.833 202.167,230.167 203.5,233.5C 202.883,233.389 202.383,233.056 202,232.5C 201.333,229.833 201.333,227.167 202,224.5C 202.383,223.944 202.883,223.611 203.5,223.5 Z"/></g>
<g><path style="opacity:0.141" fill="#d5e7fd" d="M 539.5,223.5 C 541.026,224.492 541.693,225.992 541.5,228C 541.486,229.385 541.152,230.551 540.5,231.5C 540.599,228.763 540.265,226.096 539.5,223.5 Z"/></g>
<g><path style="opacity:0.6" fill="#c3dcfd" d="M 380.5,228.5 C 373.138,228.365 365.804,228.698 358.5,229.5C 365.747,226.287 373.081,225.954 380.5,228.5 Z"/></g>
<g><path style="opacity:1" fill="#65a7fa" d="M 380.5,228.5 C 380.833,228.5 381.167,228.5 381.5,228.5C 383.181,230.008 385.181,231.008 387.5,231.5C 388.29,232.401 389.29,233.068 390.5,233.5C 392.123,236.215 392.79,239.215 392.5,242.5C 389.947,247.125 385.947,249.791 380.5,250.5C 373.138,250.635 365.804,250.302 358.5,249.5C 357.508,249.672 356.842,249.338 356.5,248.5C 355.415,246.413 353.749,245.08 351.5,244.5C 350.565,241.887 350.398,239.221 351,236.5C 353.396,233.933 355.896,231.6 358.5,229.5C 365.804,228.698 373.138,228.365 380.5,228.5 Z"/></g>
<g><path style="opacity:0.31" fill="#c7dffc" d="M 381.5,228.5 C 384.089,228.461 386.089,229.461 387.5,231.5C 385.181,231.008 383.181,230.008 381.5,228.5 Z"/></g>
<g><path style="opacity:0.137" fill="#c4d2e4" d="M 387.5,231.5 C 389.179,231.285 390.179,231.952 390.5,233.5C 389.29,233.068 388.29,232.401 387.5,231.5 Z"/></g>
<g><path style="opacity:0.369" fill="#bdd1eb" d="M 267.5,228.5 C 269.277,231.505 270.277,234.838 270.5,238.5C 268.395,235.592 267.395,232.258 267.5,228.5 Z"/></g>
<g><path style="opacity:0.639" fill="#bfd9fd" d="M 358.5,229.5 C 355.896,231.6 353.396,233.933 351,236.5C 350.398,239.221 350.565,241.887 351.5,244.5C 348.23,239.255 349.23,234.755 354.5,231C 355.745,230.209 357.078,229.709 358.5,229.5 Z"/></g>
<g><path style="opacity:0.161" fill="#bed6f6" d="M 203.5,233.5 C 205.196,233.685 206.529,234.519 207.5,236C 210.146,236.497 212.813,236.664 215.5,236.5C 215.5,236.833 215.5,237.167 215.5,237.5C 212.482,237.665 209.482,237.498 206.5,237C 205.29,235.961 204.29,234.794 203.5,233.5 Z"/></g>
<g><path style="opacity:0.919" fill="#95c0fb" d="M 215.5,236.5 C 225.051,236.213 234.384,236.88 243.5,238.5C 239.167,238.5 234.833,238.5 230.5,238.5C 225.305,238.821 220.305,238.487 215.5,237.5C 215.5,237.167 215.5,236.833 215.5,236.5 Z"/></g>
<g><path style="opacity:0.016" fill="#d4e5fc" d="M 535.5,236.5 C 523.73,238.465 511.73,239.465 499.5,239.5C 498.167,239.5 496.833,239.5 495.5,239.5C 508.647,238.002 521.98,237.002 535.5,236.5 Z"/></g>
<g><path style="opacity:0.129" fill="#dbeafe" d="M 230.5,238.5 C 234.833,238.5 239.167,238.5 243.5,238.5C 245.099,238.232 246.432,238.566 247.5,239.5C 247.672,240.492 247.338,241.158 246.5,241.5C 246.082,240.778 245.416,240.278 244.5,240C 239.649,239.826 234.982,239.326 230.5,238.5 Z"/></g>
<g><path style="opacity:0.278" fill="#bfdafc" d="M 390.5,233.5 C 391.458,233.953 392.292,234.619 393,235.5C 393.796,238.039 393.629,240.372 392.5,242.5C 392.79,239.215 392.123,236.215 390.5,233.5 Z"/></g>
<g><path style="opacity:0.014" fill="#f4f8fe" d="M 495.5,239.5 C 496.833,239.5 498.167,239.5 499.5,239.5C 498.5,240.167 497.5,240.833 496.5,241.5C 495.662,241.158 495.328,240.492 495.5,239.5 Z"/></g>
<g><path style="opacity:0.714" fill="#9dc7fc" d="M 247.5,239.5 C 248.794,241.68 248.461,243.68 246.5,245.5C 246.5,244.5 246.5,243.5 246.5,242.5C 246.5,242.167 246.5,241.833 246.5,241.5C 247.338,241.158 247.672,240.492 247.5,239.5 Z"/></g>
<g><path style="opacity:0.129" fill="#c6ddfc" d="M 270.5,238.5 C 272.02,240.89 273.02,243.557 273.5,246.5C 271.018,244.497 270.018,241.831 270.5,238.5 Z"/></g>
<g><path style="opacity:0.675" fill="#abcefc" d="M 495.5,239.5 C 495.328,240.492 495.662,241.158 496.5,241.5C 497.15,243.435 497.483,245.435 497.5,247.5C 494.965,245.154 494.298,242.487 495.5,239.5 Z"/></g>
<g><path style="opacity:0.463" fill="#d0e2fb" d="M 246.5,242.5 C 246.5,243.5 246.5,244.5 246.5,245.5C 244.991,252.104 242.991,258.437 240.5,264.5C 241.898,256.899 243.898,249.566 246.5,242.5 Z"/></g>
<g><path style="opacity:0.227" fill="#d4e6fd" d="M 351.5,244.5 C 353.749,245.08 355.415,246.413 356.5,248.5C 354.251,247.92 352.585,246.587 351.5,244.5 Z"/></g>
<g><path style="opacity:0.702" fill="#b6d4fc" d="M 273.5,246.5 C 275.293,248.426 276.293,250.759 276.5,253.5C 274.166,251.824 273.166,249.491 273.5,246.5 Z"/></g>
<g><path style="opacity:0.436" fill="#cce2fd" d="M 358.5,249.5 C 365.804,250.302 373.138,250.635 380.5,250.5C 377.686,251.165 374.686,251.498 371.5,251.5C 366.893,251.684 362.56,251.017 358.5,249.5 Z"/></g>
<g><path style="opacity:0.553" fill="#bedafd" d="M 498.5,251.5 C 499.924,253.515 500.59,255.848 500.5,258.5C 499.076,256.485 498.41,254.152 498.5,251.5 Z"/></g>
<g><path style="opacity:0.784" fill="#abcefc" d="M 468.5,248.5 C 468.833,248.5 469.167,248.5 469.5,248.5C 468.145,253.229 465.812,257.229 462.5,260.5C 463.992,256.182 465.992,252.182 468.5,248.5 Z"/></g>
<g><path style="opacity:0.039" fill="#ced9e6" d="M 462.5,260.5 C 462.011,261.995 461.345,263.329 460.5,264.5C 460.157,262.517 460.824,261.183 462.5,260.5 Z"/></g>
<g><path style="opacity:0.647" fill="#b8d0f2" d="M 278.5,257.5 C 281.08,259.089 282.413,261.422 282.5,264.5C 280.058,262.879 278.725,260.546 278.5,257.5 Z"/></g>
<g><path style="opacity:0.227" fill="#c1d6f1" d="M 500.5,258.5 C 502.074,260.102 502.741,262.102 502.5,264.5C 500.926,262.898 500.259,260.898 500.5,258.5 Z"/></g>
<g><path style="opacity:0.263" fill="#d0e4fd" d="M 282.5,264.5 C 283.906,264.973 284.573,265.973 284.5,267.5C 283.094,267.027 282.427,266.027 282.5,264.5 Z"/></g>
<g><path style="opacity:0.361" fill="#bfdafd" d="M 460.5,264.5 C 458.822,269.197 456.156,273.197 452.5,276.5C 454.673,272.148 457.34,268.148 460.5,264.5 Z"/></g>
<g><path style="opacity:0.431" fill="#d3e6fd" d="M 240.5,264.5 C 240.59,267.152 239.924,269.485 238.5,271.5C 238.41,268.848 239.076,266.515 240.5,264.5 Z"/></g>
<g><path style="opacity:0.541" fill="#bfdafd" d="M 502.5,265.5 C 503.924,267.515 504.59,269.848 504.5,272.5C 503.076,270.485 502.41,268.152 502.5,265.5 Z"/></g>
<g><path style="opacity:0.404" fill="#c4ddfd" d="M 285.5,269.5 C 287.262,270.262 288.262,271.596 288.5,273.5C 286.738,272.738 285.738,271.404 285.5,269.5 Z"/></g>
<g><path style="opacity:0.42" fill="#d5e6fd" d="M 238.5,271.5 C 238.59,274.152 237.924,276.485 236.5,278.5C 236.41,275.848 237.076,273.515 238.5,271.5 Z"/></g>
<g><path style="opacity:0.31" fill="#cce1fd" d="M 288.5,273.5 C 289.906,273.973 290.573,274.973 290.5,276.5C 289.094,276.027 288.427,275.027 288.5,273.5 Z"/></g>
<g><path style="opacity:0.412" fill="#c3dcfd" d="M 290.5,276.5 C 292.262,277.262 293.262,278.596 293.5,280.5C 291.738,279.738 290.738,278.404 290.5,276.5 Z"/></g>
<g><path style="opacity:0.145" fill="#c0d5f0" d="M 452.5,276.5 C 450.432,279.245 448.766,282.245 447.5,285.5C 446.761,285.631 446.094,285.464 445.5,285C 446.789,281.226 449.122,278.393 452.5,276.5 Z"/></g>
<g><path style="opacity:0.078" fill="#e1edfe" d="M 236.5,278.5 C 236.21,281.785 236.877,284.785 238.5,287.5C 237.542,287.047 236.708,286.381 236,285.5C 235.204,282.961 235.371,280.628 236.5,278.5 Z"/></g>
<g><path style="opacity:0.322" fill="#b8d6fd" d="M 504.5,272.5 C 505.928,275.413 506.928,278.579 507.5,282C 507.141,284.296 506.141,286.129 504.5,287.5C 505.69,282.523 505.69,277.523 504.5,272.5 Z"/></g>
<g><path style="opacity:0.655" fill="#bed8fd" d="M 293.5,280.5 C 295.145,281.479 296.479,282.812 297.5,284.5C 297.043,285.298 296.376,285.631 295.5,285.5C 295.5,285.167 295.5,284.833 295.5,284.5C 294.4,283.395 293.733,282.062 293.5,280.5 Z"/></g>
<g><path style="opacity:0.831" fill="#a1c8fc" d="M 295.5,284.5 C 295.5,284.833 295.5,285.167 295.5,285.5C 288.7,286.755 281.7,287.422 274.5,287.5C 271.5,287.5 268.5,287.5 265.5,287.5C 275.309,286.031 285.309,285.031 295.5,284.5 Z"/></g>
<g><path style="opacity:0.29" fill="#cae0fc" d="M 447.5,285.5 C 453.069,285.376 458.402,286.043 463.5,287.5C 457.949,287.473 452.616,286.806 447.5,285.5 Z"/></g>
<g><path style="opacity:0.408" fill="#ccddf4" d="M 264.5,288.5 C 264.5,287.833 264.833,287.5 265.5,287.5C 268.5,287.5 271.5,287.5 274.5,287.5C 273.003,288.306 271.336,288.972 269.5,289.5C 267.929,288.691 266.262,288.357 264.5,288.5 Z"/></g>
<g><path style="opacity:0.322" fill="#c1dafd" d="M 466.5,287.5 C 472.509,287.334 478.509,287.501 484.5,288C 485.056,288.383 485.389,288.883 485.5,289.5C 478.974,289.303 472.641,288.636 466.5,287.5 Z"/></g>
<g><path style="opacity:0.392" fill="#cfe3fd" d="M 238.5,287.5 C 243.578,289.332 248.911,289.998 254.5,289.5C 250.019,290.648 245.352,290.815 240.5,290C 239.619,289.292 238.953,288.458 238.5,287.5 Z"/></g>
<g><path style="opacity:1" fill="#60a5f9" d="M 339.5,302.5 C 339.5,309.167 339.5,315.833 339.5,322.5C 327.5,322.5 315.5,322.5 303.5,322.5C 302.5,322.167 301.833,321.5 301.5,320.5C 301.338,318.473 301.505,316.473 302,314.5C 303.707,312.963 305.207,311.296 306.5,309.5C 310.479,304.854 314.812,300.521 319.5,296.5C 325.989,299.108 332.656,301.108 339.5,302.5 Z"/></g>
<g><path style="opacity:0.165" fill="#c6ddfc" d="M 340.5,302.5 C 340.167,302.5 339.833,302.5 339.5,302.5C 332.656,301.108 325.989,299.108 319.5,296.5C 314.812,300.521 310.479,304.854 306.5,309.5C 306.167,309.5 305.833,309.5 305.5,309.5C 309.153,303.847 313.82,299.18 319.5,295.5C 326.814,297.271 333.814,299.604 340.5,302.5 Z"/></g>
<g><path style="opacity:1" fill="#60a5fa" d="M 435.5,307.5 C 436.5,309.167 437.833,310.5 439.5,311.5C 440.833,312.167 441.833,313.167 442.5,314.5C 442.893,317.513 442.226,320.18 440.5,322.5C 428.167,322.5 415.833,322.5 403.5,322.5C 403.5,315.833 403.5,309.167 403.5,302.5C 410.005,300.915 416.505,299.249 423,297.5C 423.833,297.667 424.667,297.833 425.5,298C 428.703,301.371 432.036,304.538 435.5,307.5 Z"/></g>
<g><path style="opacity:0.612" fill="#bdd9fd" d="M 435.5,307.5 C 432.036,304.538 428.703,301.371 425.5,298C 424.667,297.833 423.833,297.667 423,297.5C 416.505,299.249 410.005,300.915 403.5,302.5C 403.167,302.5 402.833,302.5 402.5,302.5C 409.752,299.029 417.419,296.862 425.5,296C 429.439,299.429 432.772,303.263 435.5,307.5 Z"/></g>
<g><path style="opacity:0.004" fill="#d7e8fe" d="M 435.5,307.5 C 437.833,307.833 439.167,309.167 439.5,311.5C 437.833,310.5 436.5,309.167 435.5,307.5 Z"/></g>
<g><path style="opacity:0.694" fill="#9ac5fb" d="M 305.5,309.5 C 305.833,309.5 306.167,309.5 306.5,309.5C 305.207,311.296 303.707,312.963 302,314.5C 301.505,316.473 301.338,318.473 301.5,320.5C 300.539,318.735 300.205,316.735 300.5,314.5C 301.833,312.5 303.5,310.833 305.5,309.5 Z"/></g>
<g><path style="opacity:0.012" fill="#d5e1f0" d="M 300.5,314.5 C 300.205,316.735 300.539,318.735 301.5,320.5C 301.833,321.5 302.5,322.167 303.5,322.5C 303.5,322.833 303.5,323.167 303.5,323.5C 301.983,323.489 300.816,322.823 300,321.5C 299.204,318.961 299.371,316.628 300.5,314.5 Z"/></g>
<g><path style="opacity:0.059" fill="#cedcee" d="M 442.5,314.5 C 443.629,316.628 443.796,318.961 443,321.5C 442.329,322.252 441.496,322.586 440.5,322.5C 442.226,320.18 442.893,317.513 442.5,314.5 Z"/></g>
<g><path style="opacity:0.683" fill="#a7cbfa" d="M 339.5,302.5 C 339.833,302.5 340.167,302.5 340.5,302.5C 341.81,309.401 341.81,316.401 340.5,323.5C 328.167,323.5 315.833,323.5 303.5,323.5C 303.5,323.167 303.5,322.833 303.5,322.5C 315.5,322.5 327.5,322.5 339.5,322.5C 339.5,315.833 339.5,309.167 339.5,302.5 Z"/></g>
<g><path style="opacity:0.678" fill="#b9d5fc" d="M 402.5,302.5 C 402.833,302.5 403.167,302.5 403.5,302.5C 403.5,309.167 403.5,315.833 403.5,322.5C 415.833,322.5 428.167,322.5 440.5,322.5C 440.389,323.117 440.056,323.617 439.5,324C 427.153,324.833 414.82,324.666 402.5,323.5C 401.187,316.371 401.187,309.371 402.5,302.5 Z"/></g>
<g><path style="opacity:0.055" fill="#e8f0fc" d="M 303.5,323.5 C 315.833,323.5 328.167,323.5 340.5,323.5C 336.969,324.23 333.303,324.896 329.5,325.5C 320.704,324.86 312.038,324.193 303.5,323.5 Z"/></g>
<g><path style="opacity:1" fill="#f472b6" d="M -0.5,416.5 C -0.5,400.833 -0.5,385.167 -0.5,369.5C 4.44937,367.611 8.94937,368.278 13,371.5C 13.3333,376.833 13.6667,382.167 14,387.5C 14.414,387.957 14.914,388.291 15.5,388.5C 21.3226,382.509 26.9892,376.343 32.5,370C 42.4085,369.313 45.2418,373.479 41,382.5C 36.4529,386.711 32.2862,391.211 28.5,396C 33.594,402.932 39.2607,409.432 45.5,415.5C 43.7137,421.562 39.7137,423.729 33.5,422C 27.3459,416.012 21.3459,409.846 15.5,403.5C 14.914,403.709 14.414,404.043 14,404.5C 13.8104,410.416 13.3104,416.249 12.5,422C 8.42795,422.956 4.59462,422.456 1,420.5C 0.78997,418.942 0.28997,417.609 -0.5,416.5 Z"/></g>
<g><path style="opacity:1" fill="#f472b6" d="M 131.5,368.5 C 134.187,368.336 136.854,368.503 139.5,369C 141.333,369.5 142.5,370.667 143,372.5C 143.5,385.162 143.667,397.829 143.5,410.5C 150.422,410.188 157.256,410.521 164,411.5C 164.667,414.5 164.667,417.5 164,420.5C 163.25,421.126 162.416,421.626 161.5,422C 152.5,422.667 143.5,422.667 134.5,422C 131.227,421.06 129.394,418.893 129,415.5C 128.5,400.17 128.333,384.837 128.5,369.5C 129.791,369.737 130.791,369.404 131.5,368.5 Z"/></g>
<g><path style="opacity:1" fill="#f472b6" d="M 189.5,368.5 C 193.839,367.846 197.673,368.846 201,371.5C 201.333,384.167 201.667,396.833 202,409.5C 208.744,410.479 215.578,410.812 222.5,410.5C 224.338,414.805 223.672,418.639 220.5,422C 211.5,422.667 202.5,422.667 193.5,422C 191.671,421.727 190.171,420.893 189,419.5C 187.861,410.93 187.361,402.264 187.5,393.5C 187.53,384.935 188.197,376.601 189.5,368.5 Z"/></g>
<g><path style="opacity:1" fill="#f472b6" d="M 425.5,423.5 C 421.5,423.5 417.5,423.5 413.5,423.5C 409.141,422.735 405.308,420.735 402,417.5C 399.594,413.12 400.594,409.787 405,407.5C 411.755,411.743 418.755,412.409 426,409.5C 426.667,407.833 426.667,406.167 426,404.5C 419.517,401.671 413.017,398.837 406.5,396C 398.5,388 398.5,380 406.5,372C 411.437,369.112 416.77,367.945 422.5,368.5C 427.556,368.029 432.223,369.029 436.5,371.5C 438.436,374.208 438.936,377.208 438,380.5C 437.311,381.357 436.478,382.023 435.5,382.5C 430.717,380.219 425.717,379.386 420.5,380C 417.058,380.427 415.558,382.26 416,385.5C 422.986,388.276 429.819,391.443 436.5,395C 442.512,402.111 443.012,409.611 438,417.5C 434.158,420.38 429.991,422.38 425.5,423.5 Z"/></g>
<g><path style="opacity:1" fill="#f472b6" d="M 467.5,368.5 C 471.516,367.9 475.016,368.9 478,371.5C 478.333,377.5 478.667,383.5 479,389.5C 484.416,390.639 489.916,390.806 495.5,390C 496,389.5 496.5,389 497,388.5C 497.5,382.175 497.666,375.842 497.5,369.5C 501.007,368.331 504.507,368.331 508,369.5C 509.735,370.682 510.735,372.349 511,374.5C 511.667,390.167 511.667,405.833 511,421.5C 506.271,423.235 501.937,422.568 498,419.5C 497.667,413.833 497.333,408.167 497,402.5C 491,401.167 485,401.167 479,402.5C 478.813,409.081 478.313,415.581 477.5,422C 473.428,422.956 469.595,422.456 466,420.5C 464.543,403.57 464.043,386.57 464.5,369.5C 465.791,369.737 466.791,369.404 467.5,368.5 Z"/></g>
<g><path style="opacity:1" fill="#f472b6" d="M 554.5,368.5 C 560.233,367.891 565.4,369.224 570,372.5C 575.072,388.292 579.905,404.126 584.5,420C 580.517,422.436 576.184,423.102 571.5,422C 569.314,418.774 567.647,415.274 566.5,411.5C 561.167,410.167 555.833,410.167 550.5,411.5C 549.031,415.043 548.031,418.709 547.5,422.5C 543.818,422.665 540.152,422.499 536.5,422C 535.13,420.559 534.13,418.892 533.5,417C 537.722,402.001 542.555,387.168 548,372.5C 549.748,370.372 551.915,369.039 554.5,368.5 Z M 557.5,382.5 C 559.411,382.574 560.578,383.574 561,385.5C 561.857,389.596 563.024,393.596 564.5,397.5C 564.291,398.086 563.957,398.586 563.5,399C 560.183,399.498 556.85,399.665 553.5,399.5C 554.419,393.741 555.753,388.074 557.5,382.5 Z"/></g>
<g><path style="opacity:1" fill="#f472b6" d="M 612.5,368.5 C 620.903,368.13 629.236,368.63 637.5,370C 647.504,375.002 650.67,382.835 647,393.5C 644.688,396.646 642.188,399.646 639.5,402.5C 642.86,406.693 646.027,411.026 649,415.5C 649.473,420.362 647.14,422.695 642,422.5C 640.033,422.458 638.199,421.958 636.5,421C 632.609,416.107 629.109,410.94 626,405.5C 624.301,404.594 622.467,404.261 620.5,404.5C 620.808,410.425 620.475,416.259 619.5,422C 616.167,422.667 612.833,422.667 609.5,422C 607.667,421.5 606.5,420.333 606,418.5C 605.333,403.167 605.333,387.833 606,372.5C 608.013,370.752 610.18,369.418 612.5,368.5 Z M 620.5,379.5 C 623.978,379.184 627.312,379.684 630.5,381C 634.105,384.315 634.439,387.982 631.5,392C 627.974,393.337 624.308,393.837 620.5,393.5C 620.5,388.833 620.5,384.167 620.5,379.5 Z"/></g>
<g><path style="opacity:1" fill="#f372b6" d="M 714.5,380.5 C 714.5,384.833 714.5,389.167 714.5,393.5C 712.708,398.789 709.041,402.289 703.5,404C 698.246,405.271 692.913,405.771 687.5,405.5C 687.666,410.844 687.499,416.177 687,421.5C 683.927,422.617 680.76,422.784 677.5,422C 675.939,421.682 674.772,420.849 674,419.5C 673.176,403.259 673.342,387.093 674.5,371C 676.392,370.027 678.392,369.36 680.5,369C 686.833,368.333 693.167,368.333 699.5,369C 706.524,370.479 711.524,374.312 714.5,380.5 Z M 687.5,379.5 C 696.708,377.887 700.875,381.554 700,390.5C 696.633,394.17 692.633,395.17 688,393.5C 687.501,388.845 687.334,384.179 687.5,379.5 Z"/></g>
<g><path style="opacity:1" fill="#f472b6" d="M 71.5,369.5 C 82.415,369.18 93.2483,369.513 104,370.5C 105.004,373.993 104.504,377.159 102.5,380C 95.5079,380.5 88.5079,380.666 81.5,380.5C 81.5,383.5 81.5,386.5 81.5,389.5C 88.1998,389.17 94.8665,389.503 101.5,390.5C 103.078,393.937 102.745,397.104 100.5,400C 94.1754,400.5 87.8421,400.666 81.5,400.5C 81.2108,404.106 81.5442,407.606 82.5,411C 89.8559,411.169 97.1892,411.669 104.5,412.5C 106.243,416.221 105.576,419.388 102.5,422C 92.5,422.667 82.5,422.667 72.5,422C 70.714,421.215 69.214,420.049 68,418.5C 67.3333,403.5 67.3333,388.5 68,373.5C 68.6897,371.65 69.8564,370.316 71.5,369.5 Z"/></g>
<g><path style="opacity:1" fill="#f472b6" d="M 250.5,369.5 C 261.59,368.87 272.423,369.537 283,371.5C 283.978,374.669 283.478,377.503 281.5,380C 274.5,380.333 267.5,380.667 260.5,381C 259.556,383.719 259.223,386.552 259.5,389.5C 266.175,389.334 272.842,389.5 279.5,390C 281.88,393.386 281.88,396.719 279.5,400C 273.167,400.333 266.833,400.667 260.5,401C 259.213,404.125 259.213,407.291 260.5,410.5C 268.11,411.467 275.777,411.8 283.5,411.5C 283.665,414.518 283.498,417.518 283,420.5C 282.25,421.126 281.416,421.626 280.5,422C 270.833,422.667 261.167,422.667 251.5,422C 249.714,421.215 248.214,420.049 247,418.5C 246.333,403.5 246.333,388.5 247,373.5C 247.69,371.65 248.856,370.316 250.5,369.5 Z"/></g>
<g><path style="opacity:1" fill="#f472b6" d="M 306.5,369.5 C 309.978,369.184 313.312,369.684 316.5,371C 320.544,376.919 324.211,383.086 327.5,389.5C 331.072,383.359 334.405,377.026 337.5,370.5C 341.519,368.982 345.352,369.316 349,371.5C 350.85,374.463 350.85,377.463 349,380.5C 344.333,388.5 339.667,396.5 335,404.5C 334.81,410.416 334.31,416.249 333.5,422C 329.428,422.956 325.595,422.456 322,420.5C 320.861,414.564 320.195,408.564 320,402.5C 313.474,393.452 307.974,383.785 303.5,373.5C 304.524,372.148 305.524,370.815 306.5,369.5 Z"/></g>
</svg>
